<svg width="166" height="308" viewBox="0 0 166 308" fill="none" xmlns="http://www.w3.org/2000/svg">
<path d="M96.8442 212.431C97.4074 212.431 97.8639 211.935 97.8639 211.323C97.8639 210.711 97.4074 210.214 96.8442 210.214C96.281 210.214 95.8245 210.711 95.8245 211.323C95.8245 211.935 96.281 212.431 96.8442 212.431Z" fill="white" fill-opacity="0.25"/>
<path d="M4.06999 181.455C4.63915 181.455 5.10055 180.954 5.10055 180.335C5.10055 179.717 4.63915 179.215 4.06999 179.215C3.50083 179.215 3.03943 179.717 3.03943 180.335C3.03943 180.954 3.50083 181.455 4.06999 181.455Z" fill="white" fill-opacity="0.25"/>
<path d="M164.49 32.7917C165.081 32.7917 165.561 32.2702 165.561 31.6269C165.561 30.9836 165.081 30.4621 164.49 30.4621C163.898 30.4621 163.418 30.9836 163.418 31.6269C163.418 32.2702 163.898 32.7917 164.49 32.7917Z" fill="white" fill-opacity="0.25"/>
<path d="M64.7414 106.693C65.3476 106.693 65.8391 106.159 65.8391 105.5C65.8391 104.841 65.3476 104.306 64.7414 104.306C64.1351 104.306 63.6436 104.841 63.6436 105.5C63.6436 106.159 64.1351 106.693 64.7414 106.693Z" fill="white" fill-opacity="0.25"/>
<path d="M108.762 169.332C109.37 169.332 109.862 168.797 109.862 168.137C109.862 167.477 109.37 166.942 108.762 166.942C108.155 166.942 107.663 167.477 107.663 168.137C107.663 168.797 108.155 169.332 108.762 169.332Z" fill="white" fill-opacity="0.25"/>
<path d="M141.338 59.851C141.952 59.851 142.449 59.31 142.449 58.6426C142.449 57.9752 141.952 57.4341 141.338 57.4341C140.724 57.4341 140.226 57.9752 140.226 58.6426C140.226 59.31 140.724 59.851 141.338 59.851Z" fill="white" fill-opacity="0.25"/>
<path d="M101.865 162.007C102.506 162.007 103.026 161.442 103.026 160.745C103.026 160.047 102.506 159.482 101.865 159.482C101.223 159.482 100.703 160.047 100.703 160.745C100.703 161.442 101.223 162.007 101.865 162.007Z" fill="white" fill-opacity="0.25"/>
<path d="M134.506 113.533C135.149 113.533 135.671 112.967 135.671 112.267C135.671 111.568 135.149 111.001 134.506 111.001C133.863 111.001 133.341 111.568 133.341 112.267C133.341 112.967 133.863 113.533 134.506 113.533Z" fill="white" fill-opacity="0.25"/>
<path d="M38.2589 89.8622C38.9136 89.8622 39.4444 89.2853 39.4444 88.5736C39.4444 87.862 38.9136 87.285 38.2589 87.285C37.6041 87.285 37.0734 87.862 37.0734 88.5736C37.0734 89.2853 37.6041 89.8622 38.2589 89.8622Z" fill="white" fill-opacity="0.25"/>
<path d="M45.8648 66.168C46.5441 66.168 47.0949 65.5694 47.0949 64.8309C47.0949 64.0924 46.5441 63.4938 45.8648 63.4938C45.1854 63.4938 44.6346 64.0924 44.6346 64.8309C44.6346 65.5694 45.1854 66.168 45.8648 66.168Z" fill="white" fill-opacity="0.25"/>
<path d="M140.478 0.692621C141.16 0.692621 141.713 0.0913951 141.713 -0.650256C141.713 -1.39191 141.16 -1.99313 140.478 -1.99313C139.795 -1.99313 139.242 -1.39191 139.242 -0.650256C139.242 0.0913951 139.795 0.692621 140.478 0.692621Z" fill="white" fill-opacity="0.25"/>
<path d="M22.5231 86.4406C23.2142 86.4406 23.7745 85.8316 23.7745 85.0804C23.7745 84.3291 23.2142 83.7201 22.5231 83.7201C21.8319 83.7201 21.2716 84.3291 21.2716 85.0804C21.2716 85.8316 21.8319 86.4406 22.5231 86.4406Z" fill="white" fill-opacity="0.25"/>
</svg>
