<svg width="547" height="503" viewBox="0 0 547 503" fill="none" xmlns="http://www.w3.org/2000/svg">
<path d="M477.406 407.431C477.969 407.431 478.425 406.935 478.425 406.323C478.425 405.711 477.969 405.214 477.406 405.214C476.842 405.214 476.386 405.711 476.386 406.323C476.386 406.935 476.842 407.431 477.406 407.431Z" fill="white" fill-opacity="0.25"/>
<path d="M384.631 376.455C385.201 376.455 385.662 375.954 385.662 375.335C385.662 374.717 385.201 374.215 384.631 374.215C384.062 374.215 383.601 374.717 383.601 375.335C383.601 375.954 384.062 376.455 384.631 376.455Z" fill="white" fill-opacity="0.25"/>
<path d="M545.051 227.792C545.643 227.792 546.123 227.27 546.123 226.627C546.123 225.984 545.643 225.462 545.051 225.462C544.459 225.462 543.979 225.984 543.979 226.627C543.979 227.27 544.459 227.792 545.051 227.792Z" fill="white" fill-opacity="0.25"/>
<path d="M443.71 39.9246C444.309 39.9246 444.794 39.397 444.794 38.7462C444.794 38.0954 444.309 37.5678 443.71 37.5678C443.111 37.5678 442.626 38.0954 442.626 38.7462C442.626 39.397 443.111 39.9246 443.71 39.9246Z" fill="white" fill-opacity="0.25"/>
<path d="M445.303 301.693C445.909 301.693 446.401 301.159 446.401 300.5C446.401 299.841 445.909 299.306 445.303 299.306C444.696 299.306 444.205 299.841 444.205 300.5C444.205 301.159 444.696 301.693 445.303 301.693Z" fill="white" fill-opacity="0.25"/>
<path d="M489.324 364.332C489.931 364.332 490.423 363.797 490.423 363.137C490.423 362.477 489.931 361.942 489.324 361.942C488.717 361.942 488.224 362.477 488.224 363.137C488.224 363.797 488.717 364.332 489.324 364.332Z" fill="white" fill-opacity="0.25"/>
<path d="M157.261 311.629C157.872 311.629 158.368 311.09 158.368 310.425C158.368 309.761 157.872 309.222 157.261 309.222C156.649 309.222 156.153 309.761 156.153 310.425C156.153 311.09 156.649 311.629 157.261 311.629Z" fill="white" fill-opacity="0.25"/>
<path d="M521.899 254.851C522.513 254.851 523.011 254.31 523.011 253.643C523.011 252.975 522.513 252.434 521.899 252.434C521.285 252.434 520.787 252.975 520.787 253.643C520.787 254.31 521.285 254.851 521.899 254.851Z" fill="white" fill-opacity="0.25"/>
<path d="M223.16 420.934C223.777 420.934 224.278 420.39 224.278 419.718C224.278 419.047 223.777 418.503 223.16 418.503C222.542 418.503 222.042 419.047 222.042 419.718C222.042 420.39 222.542 420.934 223.16 420.934Z" fill="white" fill-opacity="0.25"/>
<path d="M262.255 469.65C262.873 469.65 263.375 469.105 263.375 468.432C263.375 467.76 262.873 467.215 262.255 467.215C261.636 467.215 261.135 467.76 261.135 468.432C261.135 469.105 261.636 469.65 262.255 469.65Z" fill="white" fill-opacity="0.25"/>
<path d="M456.246 86.4258C456.865 86.4258 457.367 85.8803 457.367 85.2075C457.367 84.5347 456.865 83.9893 456.246 83.9893C455.627 83.9893 455.125 84.5347 455.125 85.2075C455.125 85.8803 455.627 86.4258 456.246 86.4258Z" fill="white" fill-opacity="0.25"/>
<path d="M509.641 145.218C510.26 145.218 510.762 144.673 510.762 144C510.762 143.327 510.26 142.782 509.641 142.782C509.022 142.782 508.521 143.327 508.521 144C508.521 144.673 509.022 145.218 509.641 145.218Z" fill="white" fill-opacity="0.25"/>
<path d="M57.8346 47.3379C58.4594 47.3379 58.966 46.7873 58.966 46.1081C58.966 45.4289 58.4594 44.8783 57.8346 44.8783C57.2097 44.8783 56.7032 45.4289 56.7032 46.1081C56.7032 46.7873 57.2097 47.3379 57.8346 47.3379Z" fill="white" fill-opacity="0.25"/>
<path d="M305.841 374.655C306.47 374.655 306.979 374.101 306.979 373.418C306.979 372.734 306.47 372.18 305.841 372.18C305.212 372.18 304.702 372.734 304.702 373.418C304.702 374.101 305.212 374.655 305.841 374.655Z" fill="white" fill-opacity="0.25"/>
<path d="M408.785 74.3249C409.419 74.3249 409.933 73.7665 409.933 73.0777C409.933 72.3889 409.419 71.8305 408.785 71.8305C408.151 71.8305 407.638 72.3889 407.638 73.0777C407.638 73.7665 408.151 74.3249 408.785 74.3249Z" fill="white" fill-opacity="0.25"/>
<path d="M465.839 61.8886C466.474 61.8886 466.99 61.3284 466.99 60.6373C466.99 59.9462 466.474 59.3859 465.839 59.3859C465.203 59.3859 464.687 59.9462 464.687 60.6373C464.687 61.3284 465.203 61.8886 465.839 61.8886Z" fill="white" fill-opacity="0.25"/>
<path d="M131.454 173.564C132.09 173.564 132.606 173.003 132.606 172.312C132.606 171.62 132.09 171.06 131.454 171.06C130.818 171.06 130.303 171.62 130.303 172.312C130.303 173.003 130.818 173.564 131.454 173.564Z" fill="white" fill-opacity="0.25"/>
<path d="M364.997 385.17C365.638 385.17 366.158 384.605 366.158 383.908C366.158 383.211 365.638 382.646 364.997 382.646C364.356 382.646 363.836 383.211 363.836 383.908C363.836 384.605 364.356 385.17 364.997 385.17Z" fill="white" fill-opacity="0.25"/>
<path d="M482.426 357.007C483.068 357.007 483.588 356.442 483.588 355.745C483.588 355.047 483.068 354.482 482.426 354.482C481.785 354.482 481.265 355.047 481.265 355.745C481.265 356.442 481.785 357.007 482.426 357.007Z" fill="white" fill-opacity="0.25"/>
<path d="M515.067 308.533C515.711 308.533 516.232 307.967 516.232 307.267C516.232 306.568 515.711 306.001 515.067 306.001C514.424 306.001 513.902 306.568 513.902 307.267C513.902 307.967 514.424 308.533 515.067 308.533Z" fill="white" fill-opacity="0.25"/>
<path d="M287.53 166.579C288.179 166.579 288.705 166.007 288.705 165.301C288.705 164.596 288.179 164.024 287.53 164.024C286.881 164.024 286.354 164.596 286.354 165.301C286.354 166.007 286.881 166.579 287.53 166.579Z" fill="white" fill-opacity="0.25"/>
<path d="M418.82 284.862C419.475 284.862 420.006 284.285 420.006 283.574C420.006 282.862 419.475 282.285 418.82 282.285C418.166 282.285 417.635 282.862 417.635 283.574C417.635 284.285 418.166 284.862 418.82 284.862Z" fill="white" fill-opacity="0.25"/>
<path d="M400.541 57.5149C401.208 57.5149 401.749 56.9268 401.749 56.2012C401.749 55.4757 401.208 54.8876 400.541 54.8876C399.873 54.8876 399.332 55.4757 399.332 56.2012C399.332 56.9268 399.873 57.5149 400.541 57.5149Z" fill="white" fill-opacity="0.25"/>
<path d="M357.09 106.903C357.762 106.903 358.306 106.311 358.306 105.581C358.306 104.851 357.762 104.259 357.09 104.259C356.419 104.259 355.874 104.851 355.874 105.581C355.874 106.311 356.419 106.903 357.09 106.903Z" fill="white" fill-opacity="0.25"/>
<path d="M325.638 375.989C326.311 375.989 326.857 375.396 326.857 374.664C326.857 373.933 326.311 373.34 325.638 373.34C324.965 373.34 324.419 373.933 324.419 374.664C324.419 375.396 324.965 375.989 325.638 375.989Z" fill="white" fill-opacity="0.25"/>
<path d="M189.772 503C190.449 503 190.997 502.404 190.997 501.669C190.997 500.934 190.449 500.338 189.772 500.338C189.096 500.338 188.548 500.934 188.548 501.669C188.548 502.404 189.096 503 189.772 503Z" fill="white" fill-opacity="0.25"/>
<path d="M496.773 99.7551C497.45 99.7551 498 99.158 498 98.4214C498 97.6848 497.45 97.0877 496.773 97.0877C496.095 97.0877 495.546 97.6848 495.546 98.4214C495.546 99.158 496.095 99.7551 496.773 99.7551Z" fill="white" fill-opacity="0.25"/>
<path d="M61.9466 204.971C62.6247 204.971 63.1745 204.374 63.1745 203.636C63.1745 202.899 62.6247 202.302 61.9466 202.302C61.2685 202.302 60.7187 202.899 60.7187 203.636C60.7187 204.374 61.2685 204.971 61.9466 204.971Z" fill="white" fill-opacity="0.25"/>
<path d="M288.742 466.873C289.421 466.873 289.971 466.276 289.971 465.538C289.971 464.801 289.421 464.203 288.742 464.203C288.064 464.203 287.514 464.801 287.514 465.538C287.514 466.276 288.064 466.873 288.742 466.873Z" fill="white" fill-opacity="0.25"/>
<path d="M426.426 261.168C427.106 261.168 427.656 260.569 427.656 259.831C427.656 259.092 427.106 258.494 426.426 258.494C425.747 258.494 425.196 259.092 425.196 259.831C425.196 260.569 425.747 261.168 426.426 261.168Z" fill="white" fill-opacity="0.25"/>
<path d="M109.08 399.722C109.76 399.722 110.311 399.123 110.311 398.384C110.311 397.645 109.76 397.047 109.08 397.047C108.401 397.047 107.85 397.645 107.85 398.384C107.85 399.123 108.401 399.722 109.08 399.722Z" fill="white" fill-opacity="0.25"/>
<path d="M521.039 195.693C521.721 195.693 522.274 195.091 522.274 194.35C522.274 193.608 521.721 193.007 521.039 193.007C520.357 193.007 519.804 193.608 519.804 194.35C519.804 195.091 520.357 195.693 521.039 195.693Z" fill="white" fill-opacity="0.25"/>
<path d="M1.24188 70.3168C1.92774 70.3168 2.48374 69.7124 2.48374 68.9669C2.48374 68.2214 1.92774 67.6171 1.24188 67.6171C0.556018 67.6171 0 68.2214 0 68.9669C0 69.7124 0.556018 70.3168 1.24188 70.3168Z" fill="white" fill-opacity="0.25"/>
<path d="M388.107 128.339C388.796 128.339 389.354 127.732 389.354 126.984C389.354 126.235 388.796 125.629 388.107 125.629C387.419 125.629 386.86 126.235 386.86 126.984C386.86 127.732 387.419 128.339 388.107 128.339Z" fill="white" fill-opacity="0.25"/>
<path d="M403.084 281.441C403.776 281.441 404.336 280.832 404.336 280.08C404.336 279.329 403.776 278.72 403.084 278.72C402.393 278.72 401.833 279.329 401.833 280.08C401.833 280.832 402.393 281.441 403.084 281.441Z" fill="white" fill-opacity="0.25"/>
<path d="M377.465 340.972C378.172 340.972 378.745 340.349 378.745 339.58C378.745 338.812 378.172 338.189 377.465 338.189C376.758 338.189 376.185 338.812 376.185 339.58C376.185 340.349 376.758 340.972 377.465 340.972Z" fill="white" fill-opacity="0.25"/>
<path d="M247.02 358.218C247.731 358.218 248.308 357.591 248.308 356.818C248.308 356.044 247.731 355.417 247.02 355.417C246.308 355.417 245.731 356.044 245.731 356.818C245.731 357.591 246.308 358.218 247.02 358.218Z" fill="white" fill-opacity="0.25"/>
<path d="M207.884 207.399C208.604 207.399 209.188 206.764 209.188 205.982C209.188 205.199 208.604 204.565 207.884 204.565C207.165 204.565 206.581 205.199 206.581 205.982C206.581 206.764 207.165 207.399 207.884 207.399Z" fill="white" fill-opacity="0.25"/>
<path d="M315.161 359.795C315.883 359.795 316.469 359.159 316.469 358.373C316.469 357.588 315.883 356.951 315.161 356.951C314.438 356.951 313.853 357.588 313.853 358.373C313.853 359.159 314.438 359.795 315.161 359.795Z" fill="white" fill-opacity="0.25"/>
<path d="M379.073 124.35C379.802 124.35 380.394 123.707 380.394 122.914C380.394 122.121 379.802 121.478 379.073 121.478C378.343 121.478 377.751 122.121 377.751 122.914C377.751 123.707 378.343 124.35 379.073 124.35Z" fill="white" fill-opacity="0.25"/>
<path d="M414.884 48.0068C415.619 48.0068 416.216 47.3586 416.216 46.559C416.216 45.7594 415.619 45.1112 414.884 45.1112C414.148 45.1112 413.552 45.7594 413.552 46.559C413.552 47.3586 414.148 48.0068 414.884 48.0068Z" fill="white" fill-opacity="0.25"/>
<path d="M306.26 236.775C306.998 236.775 307.596 236.125 307.596 235.323C307.596 234.521 306.998 233.871 306.26 233.871C305.523 233.871 304.925 234.521 304.925 235.323C304.925 236.125 305.523 236.775 306.26 236.775Z" fill="white" fill-opacity="0.25"/>
<path d="M178.017 456.738C178.763 456.738 179.369 456.08 179.369 455.269C179.369 454.457 178.763 453.799 178.017 453.799C177.27 453.799 176.665 454.457 176.665 455.269C176.665 456.08 177.27 456.738 178.017 456.738Z" fill="white" fill-opacity="0.25"/>
<path d="M161.129 281.424C161.882 281.424 162.491 280.761 162.491 279.943C162.491 279.126 161.882 278.463 161.129 278.463C160.377 278.463 159.767 279.126 159.767 279.943C159.767 280.761 160.377 281.424 161.129 281.424Z" fill="white" fill-opacity="0.25"/>
<path d="M311.821 275.089C312.578 275.089 313.191 274.422 313.191 273.6C313.191 272.777 312.578 272.111 311.821 272.111C311.064 272.111 310.451 272.777 310.451 273.6C310.451 274.422 311.064 275.089 311.821 275.089Z" fill="white" fill-opacity="0.25"/>
<path d="M260.379 296.384C261.151 296.384 261.777 295.703 261.777 294.864C261.777 294.025 261.151 293.345 260.379 293.345C259.607 293.345 258.981 294.025 258.981 294.864C258.981 295.703 259.607 296.384 260.379 296.384Z" fill="white" fill-opacity="0.25"/>
<path d="M219.816 166.665C220.599 166.665 221.234 165.975 221.234 165.124C221.234 164.273 220.599 163.583 219.816 163.583C219.033 163.583 218.398 164.273 218.398 165.124C218.398 165.975 219.033 166.665 219.816 166.665Z" fill="white" fill-opacity="0.25"/>
<path d="M62.5473 132.382C63.3362 132.382 63.9757 131.687 63.9757 130.83C63.9757 129.972 63.3362 129.277 62.5473 129.277C61.7585 129.277 61.119 129.972 61.119 130.83C61.119 131.687 61.7585 132.382 62.5473 132.382Z" fill="white" fill-opacity="0.25"/>
<path d="M50.4753 47.1651C51.2705 47.1651 51.9152 46.4644 51.9152 45.6C51.9152 44.7356 51.2705 44.0349 50.4753 44.0349C49.6801 44.0349 49.0354 44.7356 49.0354 45.6C49.0354 46.4644 49.6801 47.1651 50.4753 47.1651Z" fill="white" fill-opacity="0.25"/>
<path d="M178.922 182.404C179.719 182.404 180.364 181.703 180.364 180.837C180.364 179.971 179.719 179.27 178.922 179.27C178.126 179.27 177.48 179.971 177.48 180.837C177.48 181.703 178.126 182.404 178.922 182.404Z" fill="white" fill-opacity="0.25"/>
<path d="M307.954 0.674772C308.755 0.674772 309.405 -0.0312521 309.405 -0.902177C309.405 -1.7731 308.755 -2.47913 307.954 -2.47913C307.152 -2.47913 306.503 -1.7731 306.503 -0.902177C306.503 -0.0312521 307.152 0.674772 307.954 0.674772Z" fill="white" fill-opacity="0.25"/>
<path d="M356.701 310.7C357.503 310.7 358.154 309.993 358.154 309.12C358.154 308.247 357.503 307.54 356.701 307.54C355.898 307.54 355.247 308.247 355.247 309.12C355.247 309.993 355.898 310.7 356.701 310.7Z" fill="white" fill-opacity="0.25"/>
<path d="M114.003 104.837C114.82 104.837 115.482 104.117 115.482 103.229C115.482 102.341 114.82 101.62 114.003 101.62C113.186 101.62 112.523 102.341 112.523 103.229C112.523 104.117 113.186 104.837 114.003 104.837Z" fill="white" fill-opacity="0.25"/>
<path d="M209.114 374.952C209.935 374.952 210.6 374.229 210.6 373.337C210.6 372.446 209.935 371.723 209.114 371.723C208.294 371.723 207.629 372.446 207.629 373.337C207.629 374.229 208.294 374.952 209.114 374.952Z" fill="white" fill-opacity="0.25"/>
<path d="M247.97 102.91C248.807 102.91 249.486 102.172 249.486 101.261C249.486 100.351 248.807 99.6127 247.97 99.6127C247.132 99.6127 246.453 100.351 246.453 101.261C246.453 102.172 247.132 102.91 247.97 102.91Z" fill="white" fill-opacity="0.25"/>
<path d="M289.147 199.422C289.986 199.422 290.666 198.683 290.666 197.771C290.666 196.86 289.986 196.12 289.147 196.12C288.308 196.12 287.628 196.86 287.628 197.771C287.628 198.683 288.308 199.422 289.147 199.422Z" fill="white" fill-opacity="0.25"/>
</svg>
