<svg width="16" height="16" viewBox="0 0 16 16" fill="none" xmlns="http://www.w3.org/2000/svg">
<circle cx="8" cy="8" r="8" fill="#FF0099"/>
<path d="M8.47228 6.94193L8.67938 7.21079C8.67938 7.21079 9.92562 9.04128 10.5498 9.95507C10.9804 10.5891 11.4109 11.2231 11.8422 11.8568C11.8753 11.9022 11.9058 11.9494 11.9334 11.9981C11.166 12.0014 10.3987 11.9996 9.63168 11.9988C8.86795 10.8652 7.35175 8.59038 7.35175 8.59038L7.22095 8.35203" fill="white"/>
<path d="M6.67955 9.2869C6.65121 9.30943 6.65339 9.34685 6.65339 9.37955L6.62251 9.48274L6.47318 7.08218L6.65593 6.8867C6.7028 6.85473 8.51767 4.93632 9.39113 4.02289C9.41184 3.99382 9.44926 4.00254 9.47978 4C10.2399 4.00254 11.7597 4.00182 11.7597 4.00182C11.7597 4.00182 6.90082 9.05218 6.67955 9.2869Z" fill="white"/>
<path d="M4.66669 4.00232H6.65559V11.9961H4.66669V4.00232Z" fill="white"/>
</svg>
